<svg version="1" xmlns="http://www.w3.org/2000/svg" width="1365.333" height="1365.333" viewBox="0 0 1024.000000 1024.000000"><path d="M491.9.4c-.2.2-3.8.6-7.9.9-40.8 3.2-86.1 17.4-124 38.8-6.2 3.5-28.2 17.8-29 18.8-.3.4-2.1 1.8-4 3.1-10.6 7.4-34.8 29.8-45.8 42.3-17.7 20.2-35.8 47.8-47 71.7-7.8 16.6-18.2 45.8-20.7 58-.2.8-1.3 6.2-2.5 12-2.9 13.9-2.6 12.5-3.5 20.5-.5 3.8-1 7.9-1.2 9-.8 4.6-1.5 53.4-1.6 117l-.2 68-24.5.3c-13.5.1-24.9.4-25.5.5-.6.2-1 99.6-1 281.5V1024h717V461l-4.5-.1c-2.5 0-14 0-25.7.1l-21.2.1-.1-86.3c0-47.5-.2-87.4-.4-88.8-.3-1.4-.7-5.9-1.1-10-3.2-40.3-19.2-88.8-41.3-125.5-7.8-13-20.5-31-26.7-38.1-.5-.7-3.5-4-6.5-7.5-14.1-16.1-27.1-28.2-49.5-45.6-14.1-11-45.4-28.6-65-36.5-14.4-5.8-38.7-13.5-49-15.4-1.1-.2-3-.6-4.2-.9-1.3-.3-3.3-.7-4.5-1-2.2-.5-18.2-2.8-27.8-4.1-4.9-.6-50.5-1.5-51.1-1zm42 103c2.3.3 5.5.8 7 1 1.4.3 4.4.7 6.6 1.1 18 2.6 50.9 14.2 62.6 22 2.1 1.4 4.2 2.5 4.7 2.5 1.4 0 18.2 11.8 27.3 19.1 22.3 18.1 43.2 45.1 55.8 72.2 3.9 8.4 11.5 29.4 12.5 34.7.3 1.4 1.2 5.6 2 9.5.8 3.8 1.8 9 2.2 11.5.3 2.5.9 5.8 1.2 7.5.2 1.6.7 42 .9 89.7l.4 86.8-205.1-.1H306.9l.4-87.2c.3-48 .7-88.6 1-90.2.3-1.7 1-6.2 1.7-10 5.3-32.2 19.5-64.8 39.8-91.4 6.8-8.9 23.2-25.8 32.2-33.3 30.6-25.4 71.1-41.9 111-45.4 4.1-.4 7.6-.8 7.8-.9.5-.4 28.6.3 33.1.9z"/></svg>